<svg width="59" height="59" viewBox="0 0 59 59" fill="none" xmlns="http://www.w3.org/2000/svg">
<rect x="0.5" y="0.5" width="58" height="58" stroke="#00ADB5"/>
<path d="M29.502 12C19.8321 11.9962 12 19.5739 12 28.9268C12 36.3228 16.8995 42.6098 23.7227 44.9187C24.6416 45.142 24.5008 44.5099 24.5008 44.0784V41.145C19.1947 41.7468 18.9797 38.3478 18.6238 37.7801C17.9044 36.5916 16.2034 36.2887 16.7118 35.721C17.92 35.1192 19.1517 35.8724 20.5789 37.9125C21.6112 39.3925 23.625 39.1427 24.6455 38.8967C24.8684 38.0072 25.3454 37.2123 26.0023 36.5953C20.5046 35.6415 18.2133 32.3939 18.2133 28.5332C18.2133 26.6595 18.8506 24.9373 20.1019 23.5482C19.3042 21.2583 20.1762 19.2976 20.2935 19.0062C22.5653 18.8093 24.927 20.5807 25.1108 20.7208C26.4012 20.3839 27.8753 20.206 29.5254 20.206C31.1833 20.206 32.6614 20.3915 33.9635 20.7321C34.4053 20.4066 36.595 18.885 38.7065 19.0705C38.8199 19.3619 39.6723 21.2772 38.9216 23.5369C40.1885 24.9298 40.8337 26.6671 40.8337 28.5445C40.8337 32.4128 38.5266 35.6642 33.0133 36.6029C33.4855 37.0525 33.8605 37.5886 34.1163 38.18C34.3721 38.7714 34.5036 39.4062 34.5031 40.0473V44.3055C34.5344 44.6462 34.5031 44.983 35.0896 44.983C42.0145 42.7234 47 36.3909 47 28.9306C47 19.5739 39.164 12 29.502 12V12Z" fill="#3A4750"/>
</svg>
