<svg width="59" height="59" viewBox="0 0 59 59" fill="none" xmlns="http://www.w3.org/2000/svg">
<rect x="0.5" y="0.5" width="58" height="58" stroke="#00ADB5"/>
<path d="M17.6 25.471V42.2242C17.6 42.5019 17.4736 42.7682 17.2485 42.9646C17.0235 43.1609 16.7183 43.2712 16.4 43.2712C16.0817 43.2712 15.7765 43.1609 15.5515 42.9646C15.3264 42.7682 15.2 42.5019 15.2 42.2242V25.471C15.2 25.1933 15.3264 24.927 15.5515 24.7306C15.7765 24.5342 16.0817 24.4239 16.4 24.4239C16.7183 24.4239 17.0235 24.5342 17.2485 24.7306C17.4736 24.927 17.6 25.1933 17.6 25.471ZM44 32.8005V42.2242C44 42.5019 43.8736 42.7682 43.6485 42.9646C43.4235 43.1609 43.1183 43.2712 42.8 43.2712C42.4817 43.2712 42.1765 43.1609 41.9515 42.9646C41.7264 42.7682 41.6 42.5019 41.6 42.2242V32.8005C41.6 31.1343 40.8414 29.5363 39.4912 28.3582C38.1409 27.18 36.3096 26.5181 34.4 26.5181C32.4904 26.5181 30.6591 27.18 29.3088 28.3582C27.9586 29.5363 27.2 31.1343 27.2 32.8005V42.2242C27.2 42.5019 27.0736 42.7682 26.8485 42.9646C26.6235 43.1609 26.3183 43.2712 26 43.2712C25.6817 43.2712 25.3765 43.1609 25.1515 42.9646C24.9264 42.7682 24.8 42.5019 24.8 42.2242V25.471C24.8 25.1933 24.9264 24.927 25.1515 24.7306C25.3765 24.5342 25.6817 24.4239 26 24.4239C26.3183 24.4239 26.6235 24.5342 26.8485 24.7306C27.0736 24.927 27.2 25.1933 27.2 25.471V27.2688C28.4878 25.9905 30.1915 25.085 32.084 24.6731C33.9766 24.2611 35.9681 24.3624 37.7931 24.9632C39.618 25.5641 41.1897 26.6361 42.2987 28.0362C43.4076 29.4364 44.0011 31.0985 44 32.8005ZM18.8 17.0941C18.8 17.5083 18.6592 17.9132 18.3955 18.2576C18.1318 18.602 17.757 18.8704 17.3184 19.0289C16.8799 19.1874 16.3973 19.2289 15.9318 19.1481C15.4662 19.0673 15.0386 18.8678 14.7029 18.5749C14.3673 18.2821 14.1387 17.9089 14.0461 17.5027C13.9535 17.0965 14.001 16.6754 14.1827 16.2928C14.3643 15.9101 14.672 15.583 15.0666 15.3529C15.4613 15.1228 15.9253 15 16.4 15C17.0363 15.0007 17.6463 15.2215 18.0962 15.6141C18.5461 16.0067 18.7992 16.539 18.8 17.0941Z" fill="#3A4750"/>
</svg>
