<svg width="59" height="59" viewBox="0 0 59 59" fill="none" xmlns="http://www.w3.org/2000/svg">
<rect x="0.5" y="0.5" width="58" height="58" stroke="#00ADB5"/>
<path d="M29.5 12C19.8348 12 12 19.8348 12 29.5C12 39.1652 19.8348 47 29.5 47C39.1652 47 47 39.1652 47 29.5C47 19.8348 39.1652 12 29.5 12ZM29.5 14.5358C33.3124 14.5358 36.7923 15.962 39.4348 18.3088C37.4931 20.8699 34.5435 22.5752 31.5877 23.7294C29.9145 20.6821 28.0393 17.7501 25.9746 14.9531C27.1294 14.6748 28.3131 14.5347 29.5009 14.5358H29.5ZM23.1335 15.9533C25.0847 18.8723 26.9747 21.5786 28.7011 24.642C24.3349 25.7734 19.4008 26.4524 14.8429 26.4638C15.8036 21.8018 18.9353 17.9308 23.1335 15.9541V15.9533ZM41.0946 20.0395C43.257 22.682 44.4465 25.9867 44.4643 29.4011C41.0028 28.7186 37.5605 28.5401 34.0552 28.8936C33.6615 27.911 33.1838 26.9774 32.7261 25.9711C35.7475 24.7522 38.978 22.6663 41.0946 20.0386V20.0395ZM29.9165 26.9572C30.291 27.7535 30.725 28.5988 31.1327 29.4624C26.259 31.6114 21.0746 34.4831 18.384 39.5179C15.801 36.6595 14.4245 32.9124 14.5427 29.0616C19.7621 29.0371 24.8852 28.3844 29.9165 26.9572V26.9572ZM37.8247 31.0374C40.0025 31.0378 42.1711 31.3172 44.2779 31.8686C43.953 33.8953 43.2147 35.8335 42.1087 37.5627C41.0028 39.2918 39.5529 40.7749 37.8492 41.9198C37.046 38.2666 36.2804 34.771 34.9267 31.2465C35.8861 31.1067 36.8544 31.0365 37.8239 31.0365L37.8247 31.0374ZM44.3558 31.3086C44.3453 31.3944 44.3356 31.4784 44.3234 31.5624C44.3356 31.4775 44.3461 31.3935 44.3558 31.3086ZM32.1583 31.9299C33.5373 35.4938 34.6196 39.44 35.3459 43.2804C33.4972 44.0648 31.5091 44.4678 29.5009 44.4651C26.174 44.4699 22.9412 43.361 20.3177 41.3151C23.0276 36.9191 27.225 33.5924 32.1574 31.9307L32.1583 31.9299Z" fill="#3A4750"/>
</svg>
