<svg width="35" height="35" viewBox="0 0 35 35" fill="none" xmlns="http://www.w3.org/2000/svg">
<path fill-rule="evenodd" clip-rule="evenodd" d="M26.25 2.1875H8.75C7.00952 2.1875 5.34032 2.8789 4.10961 4.10961C2.8789 5.34032 2.1875 7.00952 2.1875 8.75V26.25C2.1875 27.9905 2.8789 29.6597 4.10961 30.8904C5.34032 32.1211 7.00952 32.8125 8.75 32.8125H26.25C27.9905 32.8125 29.6597 32.1211 30.8904 30.8904C32.1211 29.6597 32.8125 27.9905 32.8125 26.25V8.75C32.8125 7.00952 32.1211 5.34032 30.8904 4.10961C29.6597 2.8789 27.9905 2.1875 26.25 2.1875V2.1875ZM8.75 0C6.42936 0 4.20376 0.921873 2.56282 2.56282C0.921873 4.20376 0 6.42936 0 8.75L0 26.25C0 28.5706 0.921873 30.7962 2.56282 32.4372C4.20376 34.0781 6.42936 35 8.75 35H26.25C28.5706 35 30.7962 34.0781 32.4372 32.4372C34.0781 30.7962 35 28.5706 35 26.25V8.75C35 6.42936 34.0781 4.20376 32.4372 2.56282C30.7962 0.921873 28.5706 0 26.25 0L8.75 0Z" fill="#3A4750"/>
<path fill-rule="evenodd" clip-rule="evenodd" d="M18.6748 26.25H11.0732V7.75464H18.5086C21.9801 7.75464 24.0714 9.52433 24.0714 12.3703C24.0714 14.304 22.6495 16.0343 20.8273 16.3428V16.5615C23.3276 16.8175 24.9923 18.5981 24.9923 21.0087C24.9923 24.2637 22.6211 26.25 18.6748 26.25ZM13.9454 10.1893V15.5859H17.3536C19.8911 15.5859 21.2123 14.6496 21.2123 12.8953C21.2123 11.189 19.9676 10.1893 17.8414 10.1893H13.9454V10.1893ZM18.0973 23.8153H13.9454V17.8543H17.9311C20.6348 17.8543 22.0589 18.8671 22.0589 20.8031C22.0589 22.7631 20.6873 23.8153 18.0973 23.8153V23.8153Z" fill="#3A4750"/>
</svg>
