<svg width="149" height="26" viewBox="0 0 149 26" fill="none" xmlns="http://www.w3.org/2000/svg">
<path d="M7.56 19.384C7.56 21.208 7.764 22.528 8.172 23.344C8.58 24.136 9.228 24.532 10.116 24.532C11.028 24.532 11.832 23.86 12.528 22.516C13.224 21.148 13.572 19.24 13.572 16.792C13.572 14.32 13.2 12.424 12.456 11.104C11.736 9.784 10.884 9.124 9.9 9.124C8.916 9.124 8.136 9.688 7.56 10.816V19.384ZM16.02 23.74C15.132 24.316 14.268 24.724 13.428 24.964C12.588 25.204 11.76 25.324 10.944 25.324C10.152 25.324 9.42 25.18 8.748 24.892C8.076 24.58 7.536 24.256 7.128 23.92C6.744 23.56 6.312 23.236 5.832 22.948C5.352 22.636 4.896 22.48 4.464 22.48C4.032 22.48 3.648 22.72 3.312 23.2C3 23.68 2.844 24.28 2.844 25H2.16V1.6H0.36V0.879999H7.56V9.736C7.944 9.088 8.568 8.584 9.432 8.224C10.32 7.84 11.244 7.648 12.204 7.648C14.028 7.648 15.612 8.452 16.956 10.06C18.324 11.644 19.008 13.864 19.008 16.72C19.008 18.4 18.732 19.84 18.18 21.04C17.628 22.24 16.908 23.14 16.02 23.74ZM39.8742 24.28C39.6342 24.52 39.1782 24.736 38.5062 24.928C37.8342 25.096 37.0542 25.18 36.1662 25.18C34.1982 25.18 32.9622 24.592 32.4582 23.416C31.2582 24.664 29.4222 25.288 26.9502 25.288C25.6302 25.288 24.5382 24.988 23.6742 24.388C22.8342 23.764 22.4142 22.852 22.4142 21.652C22.4142 20.044 23.0382 18.808 24.2862 17.944C25.5342 17.056 27.7182 16.432 30.8382 16.072L32.2782 15.892V14.128C32.2782 12.04 32.1222 10.636 31.8102 9.916C31.4982 9.196 30.8742 8.836 29.9382 8.836C29.0262 8.836 28.4382 8.968 28.1742 9.232C27.9102 9.472 27.8142 9.76 27.8862 10.096C27.9582 10.408 28.0782 10.828 28.2462 11.356C28.4142 11.884 28.4982 12.304 28.4982 12.616C28.4982 13.36 28.2342 13.996 27.7062 14.524C27.2022 15.028 26.5782 15.28 25.8342 15.28C25.1142 15.28 24.4902 15.028 23.9622 14.524C23.4342 13.996 23.1702 13.36 23.1702 12.616C23.1702 11.392 23.7942 10.348 25.0422 9.484C26.3142 8.596 28.1982 8.152 30.6942 8.152C33.2142 8.152 35.0022 8.644 36.0582 9.628C37.1382 10.612 37.6782 12.352 37.6782 14.848V21.328C37.6782 22.6 37.8342 23.404 38.1462 23.74C38.4582 24.052 39.0342 24.112 39.8742 23.92V24.28ZM27.4182 20.932C27.5382 21.844 27.8742 22.552 28.4262 23.056C28.9782 23.536 29.6142 23.776 30.3342 23.776C31.0782 23.776 31.7262 23.416 32.2782 22.696V16.576L30.9822 16.756C29.8782 16.9 28.9782 17.32 28.2822 18.016C27.6102 18.712 27.3222 19.684 27.4182 20.932ZM51.9314 25H42.9314V24.28H44.7314V9.16H42.9314V8.44H50.1314V12.724C50.3474 11.548 50.7314 10.588 51.2834 9.844C51.8594 9.1 52.4834 8.608 53.1554 8.368C53.8514 8.128 54.5114 8.008 55.1354 8.008C55.7834 8.008 56.3954 8.128 56.9714 8.368C57.5714 8.584 58.0154 9.04 58.3034 9.736C58.5914 10.408 58.6034 11.092 58.3394 11.788C58.0754 12.46 57.6074 12.94 56.9354 13.228C56.2874 13.516 55.6874 13.552 55.1354 13.336C54.5834 13.12 54.1874 12.832 53.9474 12.472C53.7074 12.088 53.5394 11.728 53.4434 11.392C53.2034 10.504 52.8794 10.06 52.4714 10.06C52.0154 10.06 51.5114 10.852 50.9594 12.436C50.4074 13.996 50.1314 15.652 50.1314 17.404V24.28H51.9314V25ZM67.3538 19.384C67.3538 21.208 67.5578 22.528 67.9658 23.344C68.3738 24.136 69.0218 24.532 69.9098 24.532C70.8218 24.532 71.6258 23.86 72.3218 22.516C73.0178 21.148 73.3658 19.24 73.3658 16.792C73.3658 14.32 72.9938 12.424 72.2498 11.104C71.5298 9.784 70.6778 9.124 69.6938 9.124C68.7098 9.124 67.9298 9.688 67.3538 10.816V19.384ZM75.8138 23.74C74.9258 24.316 74.0618 24.724 73.2218 24.964C72.3818 25.204 71.5538 25.324 70.7378 25.324C69.9458 25.324 69.2138 25.18 68.5418 24.892C67.8698 24.58 67.3298 24.256 66.9218 23.92C66.5378 23.56 66.1058 23.236 65.6258 22.948C65.1458 22.636 64.6898 22.48 64.2578 22.48C63.8258 22.48 63.4418 22.72 63.1058 23.2C62.7938 23.68 62.6378 24.28 62.6378 25H61.9538V1.6H60.1538V0.879999H67.3538V9.736C67.7378 9.088 68.3618 8.584 69.2258 8.224C70.1138 7.84 71.0378 7.648 71.9978 7.648C73.8218 7.648 75.4058 8.452 76.7498 10.06C78.1178 11.644 78.8018 13.864 78.8018 16.72C78.8018 18.4 78.5258 19.84 77.9738 21.04C77.4218 22.24 76.7018 23.14 75.8138 23.74ZM99.668 24.28C99.428 24.52 98.972 24.736 98.3 24.928C97.628 25.096 96.848 25.18 95.96 25.18C93.992 25.18 92.756 24.592 92.252 23.416C91.052 24.664 89.216 25.288 86.744 25.288C85.424 25.288 84.332 24.988 83.468 24.388C82.628 23.764 82.208 22.852 82.208 21.652C82.208 20.044 82.832 18.808 84.08 17.944C85.328 17.056 87.512 16.432 90.632 16.072L92.072 15.892V14.128C92.072 12.04 91.916 10.636 91.604 9.916C91.292 9.196 90.668 8.836 89.732 8.836C88.82 8.836 88.232 8.968 87.968 9.232C87.704 9.472 87.608 9.76 87.68 10.096C87.752 10.408 87.872 10.828 88.04 11.356C88.208 11.884 88.292 12.304 88.292 12.616C88.292 13.36 88.028 13.996 87.5 14.524C86.996 15.028 86.372 15.28 85.628 15.28C84.908 15.28 84.284 15.028 83.756 14.524C83.228 13.996 82.964 13.36 82.964 12.616C82.964 11.392 83.588 10.348 84.836 9.484C86.108 8.596 87.992 8.152 90.488 8.152C93.008 8.152 94.796 8.644 95.852 9.628C96.932 10.612 97.472 12.352 97.472 14.848V21.328C97.472 22.6 97.628 23.404 97.94 23.74C98.252 24.052 98.828 24.112 99.668 23.92V24.28ZM87.212 20.932C87.332 21.844 87.668 22.552 88.22 23.056C88.772 23.536 89.408 23.776 90.128 23.776C90.872 23.776 91.52 23.416 92.072 22.696V16.576L90.776 16.756C89.672 16.9 88.772 17.32 88.076 18.016C87.404 18.712 87.116 19.684 87.212 20.932ZM111.725 25H102.725V24.28H104.525V9.16H102.725V8.44H109.925V12.724C110.141 11.548 110.525 10.588 111.077 9.844C111.653 9.1 112.277 8.608 112.949 8.368C113.645 8.128 114.305 8.008 114.929 8.008C115.577 8.008 116.189 8.128 116.765 8.368C117.365 8.584 117.809 9.04 118.097 9.736C118.385 10.408 118.397 11.092 118.133 11.788C117.869 12.46 117.401 12.94 116.729 13.228C116.081 13.516 115.481 13.552 114.929 13.336C114.377 13.12 113.981 12.832 113.741 12.472C113.501 12.088 113.333 11.728 113.237 11.392C112.997 10.504 112.673 10.06 112.265 10.06C111.809 10.06 111.305 10.852 110.753 12.436C110.201 13.996 109.925 15.652 109.925 17.404V24.28H111.725V25ZM138.488 24.28C138.248 24.52 137.792 24.736 137.12 24.928C136.448 25.096 135.668 25.18 134.78 25.18C132.812 25.18 131.576 24.592 131.072 23.416C129.872 24.664 128.036 25.288 125.564 25.288C124.244 25.288 123.152 24.988 122.288 24.388C121.448 23.764 121.028 22.852 121.028 21.652C121.028 20.044 121.652 18.808 122.9 17.944C124.148 17.056 126.332 16.432 129.452 16.072L130.892 15.892V14.128C130.892 12.04 130.736 10.636 130.424 9.916C130.112 9.196 129.488 8.836 128.552 8.836C127.64 8.836 127.052 8.968 126.788 9.232C126.524 9.472 126.428 9.76 126.5 10.096C126.572 10.408 126.692 10.828 126.86 11.356C127.028 11.884 127.112 12.304 127.112 12.616C127.112 13.36 126.848 13.996 126.32 14.524C125.816 15.028 125.192 15.28 124.448 15.28C123.728 15.28 123.104 15.028 122.576 14.524C122.048 13.996 121.784 13.36 121.784 12.616C121.784 11.392 122.408 10.348 123.656 9.484C124.928 8.596 126.812 8.152 129.308 8.152C131.828 8.152 133.616 8.644 134.672 9.628C135.752 10.612 136.292 12.352 136.292 14.848V21.328C136.292 22.6 136.448 23.404 136.76 23.74C137.072 24.052 137.648 24.112 138.488 23.92V24.28ZM126.032 20.932C126.152 21.844 126.488 22.552 127.04 23.056C127.592 23.536 128.228 23.776 128.948 23.776C129.692 23.776 130.34 23.416 130.892 22.696V16.576L129.596 16.756C128.492 16.9 127.592 17.32 126.896 18.016C126.224 18.712 125.936 19.684 126.032 20.932Z" fill="#303841"/>
<path d="M144.713 25.756C143.801 25.756 143.021 25.432 142.373 24.784C141.725 24.136 141.401 23.356 141.401 22.444C141.401 21.508 141.725 20.716 142.373 20.068C143.021 19.42 143.801 19.096 144.713 19.096C145.649 19.096 146.441 19.42 147.089 20.068C147.737 20.716 148.061 21.508 148.061 22.444C148.061 23.356 147.737 24.136 147.089 24.784C146.441 25.432 145.649 25.756 144.713 25.756Z" fill="#00ADB5"/>
</svg>
