<svg width="35" height="42" viewBox="0 0 35 42" fill="none" xmlns="http://www.w3.org/2000/svg">
<path d="M17.755 24.8527C17.0393 25.1815 16.2552 25.61 14.6854 26.4715C14.0903 26.8063 13.4683 27.1411 12.8895 27.4565C12.8493 27.4163 12.8077 27.3658 12.7675 27.3241C9.66225 24.0061 3.91892 21.6626 4.16294 17.2063C4.2537 15.583 4.81167 11.3216 15.1928 6.1467C23.7364 1.93592 30.5346 3.10244 31.7086 5.68991C33.3959 9.37843 28.0647 16.2422 19.2414 17.2376C18.2649 17.4356 17.2563 17.4117 16.2903 17.1676C15.3242 16.9234 14.4254 16.4653 13.6603 15.827C13.1931 15.3196 13.1231 15.2899 12.9505 15.3911C12.6663 15.5399 12.8493 15.9996 12.9505 16.263C13.2871 16.8723 13.7424 17.4081 14.2896 17.8384C14.8367 18.2688 15.4646 18.5851 16.1361 18.7686C19.6083 19.5191 23.2285 19.1605 26.486 17.7435C31.8336 15.6738 36.0086 9.92003 34.7856 5.09623C33.558 0.205479 25.44 -1.40741 17.7594 1.32141C12.9494 2.94233 8.50544 5.49396 4.68073 8.83088C0.44912 12.7887 -0.220438 16.2288 0.0533375 17.6691C1.03833 22.783 8.08804 26.1114 10.9151 28.5769C10.7663 28.6587 10.6413 28.7257 10.5297 28.7897C9.11916 29.4905 3.74186 32.3011 2.40126 35.274C0.879127 38.6426 2.64527 41.0575 3.81179 41.3818C5.56974 41.8029 7.4153 41.6645 9.09076 40.9859C10.7662 40.3073 12.1879 39.1224 13.1573 37.5966C13.9806 36.3314 14.4861 34.8861 14.6309 33.3836C14.7757 31.8811 14.5555 30.3659 13.9891 28.9667C14.3233 28.7002 14.6797 28.4627 15.0544 28.257C15.7746 27.8315 16.4605 27.4119 17.0691 27.0875C19.1527 26.1115 21.4266 25.609 23.7274 25.616C28.5572 26.1844 29.5109 29.1974 29.3279 30.4666C29.2423 30.9169 29.0612 31.3436 28.7969 31.718C28.5325 32.0925 28.191 32.406 27.7954 32.6374C27.4606 32.8502 27.349 32.9216 27.3788 33.0734C27.4189 33.2966 27.5811 33.2861 27.8653 33.246C28.591 33.0166 29.2303 32.5732 29.6992 31.9738C30.1682 31.3745 30.4449 30.6473 30.493 29.8878C30.6417 26.9119 27.8043 23.6475 22.7811 23.6772C21.277 23.6798 19.788 23.9765 18.3978 24.5506C18.1746 24.6429 17.9578 24.7421 17.7475 24.8482L17.755 24.8527ZM10.5758 36.5164C8.97186 38.2617 6.74 38.9208 5.77583 38.3629C4.7343 37.7677 5.14645 35.1862 7.11495 33.3397C8.28082 32.2893 9.54094 31.3484 10.8794 30.529C11.113 30.3803 11.4582 30.1839 11.8733 29.9339L11.9849 29.8729L12.2289 29.7241C12.58 30.9012 12.6119 32.1504 12.3215 33.3439C12.031 34.5374 11.4285 35.6323 10.5758 36.5164V36.5164Z" fill="#3A4750"/>
</svg>
