<svg width="35" height="35" viewBox="0 0 35 35" fill="none" xmlns="http://www.w3.org/2000/svg">
<path d="M0 0V35H35V0H0ZM3.18182 3.18182H31.8182V31.8182H3.18182V3.18182ZM24.2518 15.9091C21.9848 15.9091 20.5195 17.36 20.5195 19.2818C20.5195 21.3659 21.7445 22.3634 23.5868 23.1477L24.2232 23.423C25.3893 23.9368 26.083 24.2359 26.083 25.1125C26.083 25.8523 25.4036 26.3836 24.3457 26.3836C23.092 26.3836 22.3793 25.7186 21.8352 24.8261L19.7511 26.0193C20.4893 27.5005 22.0309 28.6364 24.4045 28.6364C26.8227 28.6364 28.6364 27.3827 28.6364 25.0855C28.6364 22.9377 27.4114 21.9848 25.2334 21.0636L24.6002 20.79C23.4977 20.3064 23.0284 19.9898 23.0284 19.2341C23.0284 18.6136 23.4961 18.13 24.2534 18.13C24.9932 18.13 25.4593 18.4482 25.8984 19.2341L27.8966 17.9502C27.0502 16.4707 25.8841 15.9091 24.2534 15.9091H24.2518ZM14.945 16.0618V24.753C14.945 26.0225 14.4009 26.3518 13.5689 26.3518C12.6939 26.3518 12.3152 25.7489 11.9223 25.0377L9.83818 26.2945C10.4427 27.5784 11.6343 28.6364 13.6755 28.6364C15.9409 28.6364 17.5 27.4273 17.5 24.78V16.0618H14.9466H14.945Z" fill="#3A4750"/>
</svg>
